<svg width="20" height="20" viewBox="0 0 20 20" fill="none" xmlns="http://www.w3.org/2000/svg">
<g clip-path="url(#clip0)">
<path d="M7.83207 7.48256H10.8028V15.0763H12.1739V16.588H7.84965V15.0763H9.15043V8.99428H7.83207V7.48256ZM8.84281 4.25697C8.84281 4.10463 8.87211 3.96107 8.9307 3.82631C8.99516 3.68568 9.07719 3.56557 9.1768 3.46596C9.28226 3.36049 9.40531 3.27846 9.54594 3.21986C9.68656 3.15541 9.83598 3.12318 9.99418 3.12318C10.1465 3.12318 10.2901 3.15541 10.4248 3.21986C10.5655 3.27846 10.6856 3.36049 10.7852 3.46596C10.8907 3.56557 10.9727 3.68568 11.0313 3.82631C11.0957 3.96107 11.128 4.10463 11.128 4.25697C11.128 4.41518 11.0957 4.56459 11.0313 4.70522C10.9727 4.84584 10.8907 4.97182 10.7852 5.08315C10.6856 5.18861 10.5655 5.27357 10.4248 5.33803C10.2901 5.39662 10.1465 5.42592 9.99418 5.42592C9.83598 5.42592 9.68656 5.39662 9.54594 5.33803C9.40531 5.27357 9.28226 5.18861 9.1768 5.08315C9.07719 4.97182 8.99516 4.84584 8.9307 4.70522C8.87211 4.56459 8.84281 4.41518 8.84281 4.25697Z" fill="#3066BE"/>
</g>
<defs>
<clipPath id="clip0">
<rect width="20" height="20" fill="white"/>
</clipPath>
</defs>
</svg>
